<svg width="73" height="62" viewBox="0 0 73 62" fill="none" xmlns="http://www.w3.org/2000/svg">
<path d="M36.29 60.26C55.7801 60.26 71.58 55.0621 71.58 48.65C71.58 42.238 55.7801 37.04 36.29 37.04C16.7999 37.04 1 42.238 1 48.65C1 55.0621 16.7999 60.26 36.29 60.26Z" fill="#125956" stroke="#B9F4D4" stroke-width="2" stroke-linecap="round" stroke-linejoin="round"/>
<path d="M36.2901 52.6401C52.0081 52.6401 64.7501 49.1658 64.7501 44.8801C64.7501 40.5944 52.0081 37.1201 36.2901 37.1201C20.5721 37.1201 7.83008 40.5944 7.83008 44.8801C7.83008 49.1658 20.5721 52.6401 36.2901 52.6401Z" fill="#125956" stroke="#B9F4D4" stroke-width="2" stroke-linecap="round" stroke-linejoin="round"/>
<path d="M36.29 47.2696C45.817 47.2696 53.54 45.1609 53.54 42.5596C53.54 39.9584 45.817 37.8496 36.29 37.8496C26.7631 37.8496 19.04 39.9584 19.04 42.5596C19.04 45.1609 26.7631 47.2696 36.29 47.2696Z" fill="#125956" stroke="#B9F4D4" stroke-width="2" stroke-linecap="round" stroke-linejoin="round"/>
<path d="M52.4202 17.13C52.4202 8.22 45.2002 1 36.2902 1C27.3802 1 20.1602 8.22 20.1602 17.13L35.8402 42.23L52.4202 17.13Z" fill="#125956" stroke="#B9F4D4" stroke-width="2" stroke-linecap="round" stroke-linejoin="round"/>
</svg>
