<svg width="74" height="49" viewBox="0 0 74 49" fill="none" xmlns="http://www.w3.org/2000/svg">
<g clip-path="url(#clip0_334_110)">
<path d="M64.4084 0.643555H9.5906C4.65198 0.643555 0.648438 4.61265 0.648438 9.50878V39.4916C0.648438 44.3878 4.65198 48.3569 9.5906 48.3569H64.4084C69.347 48.3569 73.3506 44.3878 73.3506 39.4916V9.50878C73.3506 4.61265 69.347 0.643555 64.4084 0.643555Z" fill="#125956" stroke="#B9F4D4" stroke-width="4" stroke-miterlimit="10" stroke-linecap="round"/>
<path d="M3.84766 2.80566C3.84766 2.80566 34.8175 30.7717 36.9265 30.7717C39.2529 30.7717 70.1514 2.80566 70.1514 2.80566" fill="#125956"/>
<path d="M3.84766 2.80566C3.84766 2.80566 34.8175 30.7717 36.9265 30.7717C39.2529 30.7717 70.1514 2.80566 70.1514 2.80566" stroke="#B9F4D4" stroke-width="4" stroke-miterlimit="10" stroke-linecap="round"/>
<path d="M3.2832 45.6198L25.3823 22.2666" stroke="#B9F4D4" stroke-width="4" stroke-miterlimit="10" stroke-linecap="round"/>
<path d="M48.6465 22.4111L70.6028 45.6196" stroke="#B9F4D4" stroke-width="4" stroke-miterlimit="10" stroke-linecap="round"/>
</g>
<defs>
<clipPath id="clip0_334_110">
<rect width="74" height="49" fill="white"/>
</clipPath>
</defs>
</svg>
