<?xml version="1.0" encoding="UTF-8"?>
<!DOCTYPE svg PUBLIC "-//W3C//DTD SVG 1.1//EN" "http://www.w3.org/Graphics/SVG/1.1/DTD/svg11.dtd">
<!-- Creator: CorelDRAW 2018 (64-Bit) -->
<svg xmlns="http://www.w3.org/2000/svg" xml:space="preserve" width="500mm" height="500mm" version="1.1" style="shape-rendering:geometricPrecision; text-rendering:geometricPrecision; image-rendering:optimizeQuality; fill-rule:evenodd; clip-rule:evenodd"
viewBox="0 0 50000 50000"
 xmlns:xlink="http://www.w3.org/1999/xlink">
 <defs>
  <style type="text/css">
   <![CDATA[
    .fil0 {fill:black;fill-rule:nonzero}
   ]]>
  </style>
 </defs>
 <g id="Слой_x0020_1">
  <metadata id="CorelCorpID_0Corel-Layer"/>
  <path class="fil0" d="M14129.48 18408.5c-389.46,240.69 -865.1,-220.21 -463.79,-461.5 2242.4,-1363.04 4493.81,-2729.66 6749.71,-4099.86 396.4,-238.33 865.1,222.04 472.8,457.92 -2251.41,1373.78 -4507.31,2743.98 -6758.72,4103.44zm27998.92 -4055.86c-110.47,308.3 -579.23,140.33 -468.76,-167.96l2145.42 -5970.21c202.78,-583.74 517.57,-942.98 894.12,-1132.8 744.49,-375.31 2604.86,-38.62 2250.06,1123.35l-5592.68 14143.54c-139.31,352.3 -310.52,870.54 -493.4,1173.99 -57.25,109.73 -174.44,243.86 -270.87,316.89 -153.8,554.74 -428.73,1452.84 -1155.81,1723.61 -140.59,44.31 -230.93,14.51 -302.73,-121.09 -283.92,-618.2 -64.86,-1388.69 181.79,-2037.81 -121.28,-452.05 249.72,-1158.56 419.04,-1616.91l5218.05 -14125.49c22.9,-61.98 44.79,-120.69 75.56,-179.93 -84.84,31.02 -164.03,73.2 -237.33,126.04 -208.72,150.52 -387.12,399.15 -516.07,771.64l-2146.39 5973.14zm801.02 226.88c-90.76,237.18 718.44,629.01 869.34,236.22l2678.35 -6771.17c113.01,-446.67 -828.69,-825.66 -1040.29,-252.7l-2507.4 6787.65zm611.17 888.9c-289.71,2.95 -608.24,-104.79 -832.51,-289.75l-2501.74 6772.33c-64.03,173.33 -244.69,601.03 -347.01,900.51 -201.78,590.58 444.1,726.65 674.89,228.67 124.66,-268.88 240.09,-618.28 341.69,-875.13l2664.68 -6736.63zm-3471.44 8390.2c-122.07,-15.1 -242.39,-50.43 -352.3,-105.85 -152.68,406.71 -295.81,836.88 -224.38,1212.97 293.67,-246.45 466.22,-730.6 576.68,-1107.12zm-35967.65 -697.23l-1115 672.99 22054.8 21551.87 20941.73 -12668.17 -1205.37 -1169.46c-6607.39,3997.12 -13214.94,7993.98 -19822.4,11991 -6951.34,-6792.65 -13902.49,-13585.51 -20853.76,-20378.23zm41205.4 8067.06l1650.06 1600.9c-7333.79,4436.65 -14667.8,8872.91 -22001.7,13309.38 -7647.03,-7472.45 -15293.82,-14945.16 -22940.8,-22417.66l1644.21 -992.41 -1644.21 -1606.7 1559.44 -941.24c-534.21,-527.45 -1068.21,-1055 -1602,-1582.61l22041.25 -13333.5 15318.66 14944.24 -271.74 705.05 -15177.5 -14804.99 -20848.01 12589.38c7316.79,7202.16 14654.37,14381.82 22027.74,21526.07l20848.01 -12625.15 -3992.57 -3890.27 250.5 -722.56 4831.76 4709.42 -1635.41 989.5 1592.37 1544.94 -1650.06 998.21zm-41292.96 -10613.32l-1027.44 620.14 22054.8 21551.87 20941.73 -12668.17 -1147.65 -1113.47 -19890.15 12034.53c-7023.48,-6750.92 -13995.57,-13579.15 -20931.29,-20424.9zm31769.56 6057.5c22.21,150.03 -266.95,167.2 -288.18,32.19 -61.21,-307.97 -267.37,-1135.1 -180.12,-1352.31 45.03,-121.63 135.09,-175.3 297.19,-139.52 265.66,57.24 603.38,354.18 909.57,726.24 40.52,-50.09 85.55,-85.86 139.58,-107.33 181.08,-73.53 398.12,-1.34 670.4,346.76 210.24,268.85 171.04,246 159.68,-151.71 -4.36,-152.69 22.95,-286.87 93,-345.3 81.05,-64.4 175.61,-67.98 283.68,10.73 270.24,148.21 161.44,-178.05 139.58,-386.37 -22.51,-254.01 -45.02,-490.13 99.07,-561.68 144.09,-71.55 360.22,35.78 729.45,475.81 94.44,116.72 -128.34,244.35 -238.65,121.64 -43.02,-51.88 -82.7,-96.86 -114.59,-139.16 -229.63,-304.61 -219.46,-181.77 -187.1,85.5 23.2,272.75 111.05,1029.32 -304.11,752.13 -175.1,-116.91 -213.71,-191.25 -213.71,124.37 -4.5,232.54 0,468.65 -148.59,525.89 -121.58,46.51 -270.17,-14.31 -450.28,-275.47 -119.5,-176.04 -372.15,-529.25 -490.81,-257.58 292.68,397.11 522.33,840.72 562.85,1155.55 40.53,311.24 -175.61,454.34 -441.27,475.81 -223.35,14.19 -464.7,-54.72 -643.91,-189.61 -87.64,-69.63 -136.87,-148.74 -151.56,-241.47 -69.79,-440.57 457.74,-518.67 263.71,-16.75 -61.07,157.99 366.17,231.1 448.66,216.27 714.04,-128.33 -290.06,-1353.64 -506.66,-1590.38 -171.26,-187.18 -781.69,-840.12 -618.11,-173.38 72.2,294.28 145.84,682.35 181.23,879.13zm-1355.35 -243.28c-83.05,131.97 -349.21,34.54 -261.16,-96.59 254.42,-424.58 704.21,-103.35 851.03,225.38 53.95,137.21 -209.37,206.36 -274.67,67.98 -45.47,-103.85 -206.32,-387.1 -315.2,-196.77zm-1132.86 1720.87c10.21,138.02 -254.04,168 -288.18,14.31 -51.48,-200.76 -309,-53.89 -248.36,203.48 21.38,90.76 45.87,166.54 219.43,37.86 118.21,-87.64 238.11,-39.36 335.12,37.71 72.04,53.67 117.07,139.53 171.1,232.54 429.73,608.81 388.22,457.91 255.1,-12.16 -71.62,-252.93 -180.93,-704.45 -109.76,-900.29 52.08,-143.32 346.98,-237.72 529.4,41.54 93.61,141.29 193.48,305.02 295.37,454.47 288.62,423.35 314.58,385.94 131.24,-123.84 -69.48,-129.51 -143.73,-266.58 -178.48,-387.27 -67.12,-233.07 61.41,-433.94 318.14,-306.95 215.34,106.53 377.88,386.99 392.67,288.22 4.56,-30.52 -4.95,-97.23 -31.37,-216.4 -46.92,-211.61 -125.78,-436.16 -158.75,-493.79 -80.51,-127.93 178.78,-227.47 265.67,-89.44 74.41,123.17 219.11,615.36 214.89,871.89 -5.44,333.2 -292.61,294.46 -498.57,122.67 -115.59,-112.26 -304.18,-359.9 -147.12,-41.82 41.63,84.3 102.37,206.17 137.75,321.05 288.15,935.5 -222.93,846.16 -655.05,215.03 -238.52,-348.38 -482.15,-754.38 -260.54,78.1 318.43,1196.23 -282.44,1062.52 -694.21,386.49 -102.62,-176.7 -95.58,-314.63 -299.45,-200.29 -130.14,72.98 -244.49,57.7 -339.95,-17.94 -72.04,-57.24 -112.57,-171.72 -135.08,-307.67 -49.53,28.62 -99.06,46.51 -148.59,57.24 -157.6,32.2 -283.68,-14.31 -346.72,-200.34 -183.22,-478.28 1065.29,-1400.39 1361.59,-1387.87 468.42,19.79 277.33,454.43 41.73,291.7 -66.83,-46.16 -274.91,72.92 -516.54,200.35 -516.1,272.2 -1130.95,1284.62 -148.32,559.53 105.72,-68.25 260.58,-117.99 379.77,-54.76 84.77,44.96 141.16,146.59 156.07,326.65zm2933.98 1631.29c-150.98,85.69 -314.35,-77.53 -180.11,-175.3 1103.19,-669 2210.88,-1341.58 3318.57,-2017.73 147.37,-92.01 329.07,84.62 175.61,171.72 -1107.69,676.15 -2215.38,1348.73 -3314.07,2021.31zm-9527.94 5856.44c-255.76,152.39 -540.97,-138.21 -297.19,-289.78 1873.17,-1134.09 3750.84,-2275.32 5624.01,-3416.56 246.31,-153.13 545.99,131.49 297.19,286.21 -1873.17,1144.81 -3750.84,2286.05 -5624.01,3420.13zm-4750.47 -4625.77c-248.76,146.1 -547.25,-134.29 -297.18,-289.78 2354.97,-1416.7 4682.92,-2836.99 7019.88,-4250.12 241.62,-150.23 553.58,129.57 301.69,286.21 -2341.46,1416.7 -4664.91,2836.99 -7024.39,4253.69zm-1603 -1556.23c-250.25,155.62 -536.82,-130.41 -297.18,-286.2 4342.58,-2621.62 8672.58,-5264.41 13022.12,-7874.17 248.55,-154.55 544.67,140.88 297.19,286.2 -4349.22,2609.56 -8679.72,5252.68 -13022.13,7874.17zm-1584.99 -1552.65c-249.97,146.8 -544.19,-139.77 -297.18,-293.36 4339.26,-2616.16 8668.64,-5248.58 13008.62,-7863.43 242.96,-151.09 545.6,135.31 297.18,289.78 -4342.53,2610.95 -8674.76,5241.49 -13008.62,7867.01zm-1593.99 -1552.65c-254.42,149.41 -541.82,-141.26 -297.19,-293.36 4338.58,-2624.63 8679.04,-5245.98 13017.63,-7870.59 254.12,-149.24 539.03,147.76 297.18,289.78 -4341.42,2620.92 -8681.78,5244.04 -13017.62,7874.17zm-1589.49 -1563.39c-244.83,152.23 -545.72,-135.23 -297.19,-289.78 4325.79,-2636.62 8675.28,-5238.24 13008.62,-7863.44 251.8,-147.86 536.46,146.65 292.68,289.78 -4335.06,2619.09 -8679.63,5227.62 -13004.11,7863.44z"/>
 </g>
</svg>
