<svg id="ae7ff030-7ebf-442b-a1f7-821926397fe3" data-name="line" xmlns="http://www.w3.org/2000/svg" viewBox="0 0 64 64"><title>1</title><path d="M58.25153,34.75848a16.77156,16.77156,0,0,0-3.43707-4.89813,1,1,0,1,0-1.42872,1.39942c2.60285,2.766,5.39179,6.86936,2.35436,10.22223-1.55156-4.12446-6.07744-8.2262-12.11528-10.91639a16.589,16.589,0,0,0,1.72735-4.81738,29.31962,29.31962,0,0,1,5.12439,3.00714A1.00026,1.00026,0,0,0,51.663,27.145a31.42039,31.42039,0,0,0-5.89888-3.414c-.06041-.03424-.148-.05854-.20811-.08759a11.56232,11.56232,0,0,0-4.08731-9.52469c-5.97257-5.46131-14.14392-4.83575-24.3283.725a37.24658,37.24658,0,0,0-5.63116,3.97713A1.00008,1.00008,0,0,0,12.811,20.33936a35.26145,35.26145,0,0,1,5.32861-3.76319c8.32265-4.66379,19.51885-6.89165,21.37558.42639C30.15776,11.87829,10.45757,24.1834,7.358,34.87941,4.45128,31.61223,6.503,27.2432,10.03886,23.06249A1,1,0,1,0,8.541,21.7373c-3.43573,3.88532-5.0243,7.943-4.39234,11.17023C4.09741,36.66,7.44843,43.58777,12.08252,45.23047a19.28426,19.28426,0,0,0,6.03516.84863,25.936,25.936,0,0,0,6.395-.83594,28.78893,28.78893,0,0,0,18.48291,8.32715C52.55613,54.49321,64.49266,46.94383,58.25153,34.75848Zm-4.21466,7.90131c-4.13213,2.19967-12.92442.64163-18.644-2.80473a31.06638,31.06638,0,0,0,7.193-7.56029C48.43762,34.85358,52.88379,38.88293,54.03687,42.65979ZM40.12646,23.103a10.9444,10.9444,0,0,0,1.408-6.074,7.59661,7.59661,0,0,1,1.12085,1.80255c2.50375,5.66806-.39135,11.53976-4.53083,15.87937a28.7011,28.7011,0,0,1-4.589,4.02647,23.34352,23.34352,0,0,1-5.02285-4.3921C33.15008,31.67745,37.77746,27.59722,40.12646,23.103Zm-8.49481,6.71032a35.2967,35.2967,0,0,1-4.3045,2.90864,10.28485,10.28485,0,0,1-.98987-1.99317A14.01131,14.01131,0,0,1,31.63165,29.81335ZM25.91315,28.755c-.0668-5.57133,6.6055-6.16106,11.73408-5.39134a24.21946,24.21946,0,0,1-3.82216,4.56176A18.147,18.147,0,0,0,25.91315,28.755Zm-6.23493-5.55285c7.35938-5.05127,15.76319-6.78272,19.54688-4.0293a.95874.95874,0,0,0,.20318.09326,10.60926,10.60926,0,0,1-.76318,2.25244c-4.34052-.80908-8.19464-.50177-10.91748.90632A13.302,13.302,0,0,0,18.937,35.458a6.60436,6.60436,0,0,0,.05487.70465c-4.03186,1.02014-7.54571.95312-9.89642-.10816C10.28857,31.78369,14.31018,26.88574,19.67822,23.20215Zm-6.9248,20.14453c-2.34784-.83252-4.266-3.41638-5.42078-5.95789,3.31034,2.01573,8.08356,1.75737,12.16662.69848a22.1821,22.1821,0,0,0,3.47756,5.46964A20.91871,20.91871,0,0,1,12.75342,43.34668ZM53.9668,48.59326c-11.823,9.013-32.08187-3.69954-33.02977-13.16709a11.15938,11.15938,0,0,1,3.09819-8.30776C22.59676,39.46576,46.3129,49.88112,55.77863,43.983a7.10682,7.10682,0,0,0,2.18927-2.06907A9.33291,9.33291,0,0,1,53.9668,48.59326Z"/></svg>